<svg xmlns="http://www.w3.org/2000/svg" width="1024" height="1024" viewBox="0 0 270.93333 270.93334"><g style="line-height:1.25;-inkscape-font-specification:'Merriweather Sans Ultra-Bold Italic'"><path style="-inkscape-font-specification:'Merriweather Sans Ultra-Bold'" d="M52.705314 69.938225V200.99483h76.729166v-26.45834H85.160698V69.938225zM194.98293 121.26067c-.24598-.00013-.49374.002-.74362.007-3.52778.047-6.9378.58783-10.23039 1.62264-3.29259 1.03481-6.27958 2.32816-8.96069 3.88038-2.68111 1.55222-4.84478 3.15187-6.49108 4.79816l-.5643-9.17256h-23.28334v78.59882h25.4v-54.60959c1.17593-1.12889 2.49304-2.06997 3.95118-2.82257 1.50519-.75258 3.01031-1.31662 4.51549-1.69292 1.50519-.37629 2.8693-.56482 4.09226-.56482 3.76296-.14112 6.37341.87022 7.83156 3.03392 1.45815 2.11667 2.18695 6.04423 2.18695 11.78275v44.87323h25.54107v-49.5298c0-11.28888-1.9989-19.16777-5.99705-23.63628-3.8732-4.37444-9.62267-6.56381-17.24804-6.56808z" font-style="normal" aria-label="Ln" font-weight="800" font-size="176.389" font-family="Merriweather Sans" stroke-width=".264583"/></g></svg>